<svg xmlns="http://www.w3.org/2000/svg" xmlns:xlink="http://www.w3.org/1999/xlink" contentStyleType="text/css" data-diagram-type="CLASS" height="861px" preserveAspectRatio="none" style="width:1621px;height:861px;background:#FFFFFF;" version="1.1" viewBox="0 0 1621 861" width="1621px" zoomAndPan="magnify"><?plantuml 1.2026.3beta6?><defs/><g><g class="title" data-source-line="1"><text fill="#000000" font-family="sans-serif" font-size="14" font-weight="700" lengthAdjust="spacing" textLength="303.7617" x="655.1191" y="22.9951">Board Game Caf&#233; &#8212; Capas del sistema</text></g><!--cluster P_CONSOLA--><g class="cluster" data-qualified-name="P_CONSOLA" data-source-line="11" id="ent0002"><rect fill="#FAEEDA" height="166.78" rx="2.5" ry="2.5" style="stroke:#000000;stroke-width:1.5;" width="184" x="864" y="216.8869"/><text fill="#000000" font-family="sans-serif" font-size="14" font-weight="700" lengthAdjust="spacing" textLength="151.2998" x="880.3501" y="231.882">Interfaz de consola</text></g><!--cluster P_GRAFICA--><g class="cluster" data-qualified-name="P_GRAFICA" data-source-line="20" id="ent0004"><rect fill="#EAF3DE" height="294.63" rx="2.5" ry="2.5" style="stroke:#000000;stroke-width:1.5;" width="535" x="1072" y="44.2969"/><text fill="#000000" font-family="sans-serif" font-size="14" font-weight="700" lengthAdjust="spacing" textLength="187.3115" x="1245.8442" y="59.292">Interfaz gr&#225;fica (Swing)</text></g><!--cluster P_MODELO--><g class="cluster" data-qualified-name="P_MODELO" data-source-line="35" id="ent0014"><rect fill="#E6F1FB" height="227.04" rx="2.5" ry="2.5" style="stroke:#000000;stroke-width:1.5;" width="92" x="125" y="440.1169"/><text fill="#000000" font-family="sans-serif" font-size="14" font-weight="700" lengthAdjust="spacing" textLength="57.4834" x="142.2583" y="455.112">Modelo</text></g><!--cluster P_DOMINIO--><g class="cluster" data-qualified-name="P_DOMINIO" data-source-line="40" id="ent0017"><rect fill="#EEEDFE" height="265.89" rx="2.5" ry="2.5" style="stroke:#000000;stroke-width:1.5;" width="344" x="249" y="581.8569"/><text fill="#000000" font-family="sans-serif" font-size="14" font-weight="700" lengthAdjust="spacing" textLength="65.0098" x="388.4951" y="596.852">Dominio</text></g><!--cluster P_PERSIST--><g class="cluster" data-qualified-name="P_PERSIST" data-source-line="55" id="ent0027"><rect fill="#FBEAF0" height="142.19" rx="2.5" ry="2.5" style="stroke:#000000;stroke-width:1.5;" width="232" x="969" y="407.6669"/><text fill="#000000" font-family="sans-serif" font-size="14" font-weight="700" lengthAdjust="spacing" textLength="96.8242" x="1036.5879" y="422.662">Persistencia</text></g><!--cluster P_TEST--><g class="cluster" data-qualified-name="P_TEST" data-source-line="65" id="ent0029"><rect fill="#FCEBEB" height="91.26" rx="2.5" ry="2.5" style="stroke:#000000;stroke-width:1.5;" width="833" x="7" y="254.6469"/><text fill="#000000" font-family="sans-serif" font-size="14" font-weight="700" lengthAdjust="spacing" textLength="64.4287" x="391.2856" y="269.642">Pruebas</text></g><!--class InterfazConsola--><g class="entity" data-qualified-name="P_CONSOLA.InterfazConsola" data-source-line="12" id="ent0003"><rect fill="#F1F1F1" height="115.7813" rx="2.5" ry="2.5" style="stroke:#181818;stroke-width:0.5;" width="152.0068" x="880" y="251.8869"/><text fill="#000000" font-family="sans-serif" font-size="14" lengthAdjust="spacing" textLength="109.2588" x="901.374" y="269.882">InterfazConsola</text><line style="stroke:#181818;stroke-width:0.5;" x1="881" x2="1031.0068" y1="278.1838" y2="278.1838"/><g data-visibility-modifier="PUBLIC_METHOD"><ellipse cx="891" cy="291.8322" fill="#84BE84" rx="3" ry="3" style="stroke:#038048;stroke-width:1;"/></g><text fill="#000000" font-family="sans-serif" font-size="14" lengthAdjust="spacing" textLength="76.4189" x="900" y="295.1789">main(args)</text><g data-visibility-modifier="PRIVATE_METHOD"><rect fill="#F24D5C" height="6" style="stroke:#C82930;stroke-width:1;" width="6" x="888" y="305.1291"/></g><text fill="#000000" font-family="sans-serif" font-size="14" lengthAdjust="spacing" textLength="109.1357" x="900" y="311.4757">menuAdmin(...)</text><g data-visibility-modifier="PRIVATE_METHOD"><rect fill="#F24D5C" height="6" style="stroke:#C82930;stroke-width:1;" width="6" x="888" y="321.4259"/></g><text fill="#000000" font-family="sans-serif" font-size="14" lengthAdjust="spacing" textLength="115.1924" x="900" y="327.7726">menuMesero(...)</text><g data-visibility-modifier="PRIVATE_METHOD"><rect fill="#F24D5C" height="6" style="stroke:#C82930;stroke-width:1;" width="6" x="888" y="337.7228"/></g><text fill="#000000" font-family="sans-serif" font-size="14" lengthAdjust="spacing" textLength="126.0068" x="900" y="344.0695">menuCocinero(...)</text><g data-visibility-modifier="PRIVATE_METHOD"><rect fill="#F24D5C" height="6" style="stroke:#C82930;stroke-width:1;" width="6" x="888" y="354.0197"/></g><text fill="#000000" font-family="sans-serif" font-size="14" lengthAdjust="spacing" textLength="113.415" x="900" y="360.3664">menuCliente(...)</text></g><!--class MainAdmin--><g class="entity" data-qualified-name="P_GRAFICA.MainAdmin" data-source-line="21" id="ent0005"><rect fill="#F1F1F1" height="26.2969" rx="2.5" ry="2.5" style="stroke:#181818;stroke-width:0.5;" width="84.2852" x="1213.86" y="79.2969"/><text fill="#000000" font-family="sans-serif" font-size="14" lengthAdjust="spacing" textLength="78.2852" x="1216.86" y="97.292">MainAdmin</text></g><!--class MainMesero--><g class="entity" data-qualified-name="P_GRAFICA.MainMesero" data-source-line="22" id="ent0006"><rect fill="#F1F1F1" height="26.2969" rx="2.5" ry="2.5" style="stroke:#181818;stroke-width:0.5;" width="90.3418" x="1339.83" y="79.2969"/><text fill="#000000" font-family="sans-serif" font-size="14" lengthAdjust="spacing" textLength="84.3418" x="1342.83" y="97.292">MainMesero</text></g><!--class MainCocinero--><g class="entity" data-qualified-name="P_GRAFICA.MainCocinero" data-source-line="23" id="ent0007"><rect fill="#F1F1F1" height="26.2969" rx="2.5" ry="2.5" style="stroke:#181818;stroke-width:0.5;" width="101.1563" x="1474.42" y="79.2969"/><text fill="#000000" font-family="sans-serif" font-size="14" lengthAdjust="spacing" textLength="95.1563" x="1477.42" y="97.292">MainCocinero</text></g><!--class MainCliente--><g class="entity" data-qualified-name="P_GRAFICA.MainCliente" data-source-line="24" id="ent0008"><rect fill="#F1F1F1" height="26.2969" rx="2.5" ry="2.5" style="stroke:#181818;stroke-width:0.5;" width="88.5645" x="1087.72" y="79.2969"/><text fill="#000000" font-family="sans-serif" font-size="14" lengthAdjust="spacing" textLength="82.5645" x="1090.72" y="97.292">MainCliente</text></g><!--class LoginFrame--><g class="entity" data-qualified-name="P_GRAFICA.LoginFrame" data-source-line="25" id="ent0009"><rect fill="#F1F1F1" height="26.2969" rx="2.5" ry="2.5" style="stroke:#181818;stroke-width:0.5;" width="88.6533" x="1087.67" y="165.5869"/><text fill="#000000" font-family="sans-serif" font-size="14" lengthAdjust="spacing" textLength="82.6533" x="1090.67" y="183.582">LoginFrame</text></g><!--class AdminFrame--><g class="entity" data-qualified-name="P_GRAFICA.AdminFrame" data-source-line="26" id="ent0010"><rect fill="#F1F1F1" height="26.2969" rx="2.5" ry="2.5" style="stroke:#181818;stroke-width:0.5;" width="95.5029" x="1211.25" y="165.5869"/><text fill="#000000" font-family="sans-serif" font-size="14" lengthAdjust="spacing" textLength="89.5029" x="1214.25" y="183.582">AdminFrame</text></g><!--class MeseroFrame--><g class="entity" data-qualified-name="P_GRAFICA.MeseroFrame" data-source-line="27" id="ent0011"><rect fill="#F1F1F1" height="26.2969" rx="2.5" ry="2.5" style="stroke:#181818;stroke-width:0.5;" width="101.5596" x="1342.22" y="165.5869"/><text fill="#000000" font-family="sans-serif" font-size="14" lengthAdjust="spacing" textLength="95.5596" x="1345.22" y="183.582">MeseroFrame</text></g><!--class CocineroFrame--><g class="entity" data-qualified-name="P_GRAFICA.CocineroFrame" data-source-line="28" id="ent0012"><rect fill="#F1F1F1" height="26.2969" rx="2.5" ry="2.5" style="stroke:#181818;stroke-width:0.5;" width="112.374" x="1478.81" y="165.5869"/><text fill="#000000" font-family="sans-serif" font-size="14" lengthAdjust="spacing" textLength="106.374" x="1481.81" y="183.582">CocineroFrame</text></g><!--class ClienteFrame--><g class="entity" data-qualified-name="P_GRAFICA.ClienteFrame" data-source-line="29" id="ent0013"><rect fill="#F1F1F1" height="26.2969" rx="2.5" ry="2.5" style="stroke:#181818;stroke-width:0.5;" width="99.7822" x="1209.11" y="296.6269"/><text fill="#000000" font-family="sans-serif" font-size="14" lengthAdjust="spacing" textLength="93.7822" x="1212.11" y="314.622">ClienteFrame</text></g><!--class Cafe--><g class="entity" data-qualified-name="P_MODELO.Cafe" data-source-line="36" id="ent0015"><rect fill="#F1F1F1" height="26.2969" rx="2.5" ry="2.5" style="stroke:#181818;stroke-width:0.5;" width="37.8965" x="157.05" y="475.1169"/><text fill="#000000" font-family="sans-serif" font-size="14" lengthAdjust="spacing" textLength="31.8965" x="160.05" y="493.112">Cafe</text></g><!--class Informe--><g class="entity" data-qualified-name="P_MODELO.Informe" data-source-line="37" id="ent0016"><rect fill="#F1F1F1" height="26.2969" rx="2.5" ry="2.5" style="stroke:#181818;stroke-width:0.5;" width="60.5029" x="140.75" y="624.8569"/><text fill="#000000" font-family="sans-serif" font-size="14" lengthAdjust="spacing" textLength="54.5029" x="143.75" y="642.852">Informe</text></g><!--class DOM_USU--><g class="entity" data-qualified-name="P_DOMINIO.DOM_USU" data-source-line="41" id="ent0018"><rect fill="#F1F1F1" height="26.2969" rx="2.5" ry="2.5" style="stroke:#181818;stroke-width:0.5;" width="65.124" x="278.44" y="624.8569"/><text fill="#000000" font-family="sans-serif" font-size="14" lengthAdjust="spacing" textLength="59.124" x="281.44" y="642.852">usuarios</text></g><!--class DOM_JUE--><g class="entity" data-qualified-name="P_DOMINIO.DOM_JUE" data-source-line="42" id="ent0019"><rect fill="#F1F1F1" height="26.2969" rx="2.5" ry="2.5" style="stroke:#181818;stroke-width:0.5;" width="52.1221" x="378.94" y="624.8569"/><text fill="#000000" font-family="sans-serif" font-size="14" lengthAdjust="spacing" textLength="46.1221" x="381.94" y="642.852">juegos</text></g><!--class DOM_MES--><g class="entity" data-qualified-name="P_DOMINIO.DOM_MES" data-source-line="43" id="ent0020"><rect fill="#F1F1F1" height="26.2969" rx="2.5" ry="2.5" style="stroke:#181818;stroke-width:0.5;" width="51.418" x="466.29" y="624.8569"/><text fill="#000000" font-family="sans-serif" font-size="14" lengthAdjust="spacing" textLength="45.418" x="469.29" y="642.852">mesas</text></g><!--class DOM_PRO--><g class="entity" data-qualified-name="P_DOMINIO.DOM_PRO" data-source-line="44" id="ent0021"><rect fill="#F1F1F1" height="26.2969" rx="2.5" ry="2.5" style="stroke:#181818;stroke-width:0.5;" width="76.0137" x="272.99" y="711.1569"/><text fill="#000000" font-family="sans-serif" font-size="14" lengthAdjust="spacing" textLength="70.0137" x="275.99" y="729.152">productos</text></g><!--class DOM_PED--><g class="entity" data-qualified-name="P_DOMINIO.DOM_PED" data-source-line="45" id="ent0022"><rect fill="#F1F1F1" height="26.2969" rx="2.5" ry="2.5" style="stroke:#181818;stroke-width:0.5;" width="61.0225" x="384.49" y="711.1569"/><text fill="#000000" font-family="sans-serif" font-size="14" lengthAdjust="spacing" textLength="55.0225" x="387.49" y="729.152">pedidos</text></g><!--class DOM_PRE--><g class="entity" data-qualified-name="P_DOMINIO.DOM_PRE" data-source-line="46" id="ent0023"><rect fill="#F1F1F1" height="26.2969" rx="2.5" ry="2.5" style="stroke:#181818;stroke-width:0.5;" width="80.1152" x="480.94" y="711.1569"/><text fill="#000000" font-family="sans-serif" font-size="14" lengthAdjust="spacing" textLength="74.1152" x="483.94" y="729.152">prestamos</text></g><!--class DOM_VEN--><g class="entity" data-qualified-name="P_DOMINIO.DOM_VEN" data-source-line="47" id="ent0024"><rect fill="#F1F1F1" height="26.2969" rx="2.5" ry="2.5" style="stroke:#181818;stroke-width:0.5;" width="53.1338" x="284.43" y="797.4469"/><text fill="#000000" font-family="sans-serif" font-size="14" lengthAdjust="spacing" textLength="47.1338" x="287.43" y="815.442">ventas</text></g><!--class DOM_SUG--><g class="entity" data-qualified-name="P_DOMINIO.DOM_SUG" data-source-line="48" id="ent0025"><rect fill="#F1F1F1" height="26.2969" rx="2.5" ry="2.5" style="stroke:#181818;stroke-width:0.5;" width="90.3691" x="372.82" y="797.4469"/><text fill="#000000" font-family="sans-serif" font-size="14" lengthAdjust="spacing" textLength="84.3691" x="375.82" y="815.442">sugerencias</text></g><!--class DOM_TOR--><g class="entity" data-qualified-name="P_DOMINIO.DOM_TOR" data-source-line="49" id="ent0026"><rect fill="#F1F1F1" height="26.2969" rx="2.5" ry="2.5" style="stroke:#181818;stroke-width:0.5;" width="59.1563" x="498.42" y="797.4469"/><text fill="#000000" font-family="sans-serif" font-size="14" lengthAdjust="spacing" textLength="53.1563" x="501.42" y="815.442">torneos</text></g><!--class GestorPersistencia--><g class="entity" data-qualified-name="P_PERSIST.GestorPersistencia" data-source-line="56" id="ent0028"><rect fill="#F1F1F1" height="91.1875" rx="2.5" ry="2.5" style="stroke:#181818;stroke-width:0.5;" width="199.8721" x="985.06" y="442.6669"/><text fill="#000000" font-family="sans-serif" font-size="14" lengthAdjust="spacing" textLength="130.9971" x="1019.4975" y="460.662">GestorPersistencia</text><line style="stroke:#181818;stroke-width:0.5;" x1="986.06" x2="1183.9321" y1="468.9638" y2="468.9638"/><g data-visibility-modifier="PRIVATE_FIELD"><rect fill="none" height="6" style="stroke:#C82930;stroke-width:1;" width="6" x="993.06" y="479.6122"/></g><text fill="#000000" font-family="sans-serif" font-size="14" lengthAdjust="spacing" textLength="136.7393" x="1005.06" y="485.9589">rutaArchivo : String</text><line style="stroke:#181818;stroke-width:0.5;" x1="986.06" x2="1183.9321" y1="493.2606" y2="493.2606"/><g data-visibility-modifier="PUBLIC_METHOD"><ellipse cx="996.06" cy="506.9091" fill="#84BE84" rx="3" ry="3" style="stroke:#038048;stroke-width:1;"/></g><text fill="#000000" font-family="sans-serif" font-size="14" lengthAdjust="spacing" textLength="163.8096" x="1005.06" y="510.2557">cargarTodo(cafe) : void</text><g data-visibility-modifier="PUBLIC_METHOD"><ellipse cx="996.06" cy="523.2059" fill="#84BE84" rx="3" ry="3" style="stroke:#038048;stroke-width:1;"/></g><text fill="#000000" font-family="sans-serif" font-size="14" lengthAdjust="spacing" textLength="173.8721" x="1005.06" y="526.5526">guardarTodo(cafe) : void</text></g><!--class PruebasAutomaticas--><g class="entity" data-qualified-name="P_TEST.PruebasAutomaticas" data-source-line="66" id="ent0030"><rect fill="#F1F1F1" height="40.2656" rx="2.5" ry="2.5" style="stroke:#181818;stroke-width:0.5;" width="150.1152" x="673.94" y="289.6469"/><text fill="#000000" font-family="sans-serif" font-size="12" font-style="italic" lengthAdjust="spacing" textLength="37.7285" x="730.1334" y="305.7855">&#171;test&#187;</text><text fill="#000000" font-family="sans-serif" font-size="14" lengthAdjust="spacing" textLength="144.1152" x="676.94" y="321.6107">PruebasAutomaticas</text></g><!--class CafeTest--><g class="entity" data-qualified-name="P_TEST.CafeTest" data-source-line="67" id="ent0031"><rect fill="#F1F1F1" height="40.2656" rx="2.5" ry="2.5" style="stroke:#181818;stroke-width:0.5;" width="67.8447" x="142.08" y="289.6469"/><text fill="#000000" font-family="sans-serif" font-size="12" font-style="italic" lengthAdjust="spacing" textLength="42.6504" x="154.6772" y="305.7855">&#171;JUnit&#187;</text><text fill="#000000" font-family="sans-serif" font-size="14" lengthAdjust="spacing" textLength="61.8447" x="145.08" y="321.6107">CafeTest</text></g><!--class RFClienteTest--><g class="entity" data-qualified-name="P_TEST.RFClienteTest" data-source-line="68" id="ent0032"><rect fill="#F1F1F1" height="40.2656" rx="2.5" ry="2.5" style="stroke:#181818;stroke-width:0.5;" width="102.8721" x="244.56" y="289.6469"/><text fill="#000000" font-family="sans-serif" font-size="12" font-style="italic" lengthAdjust="spacing" textLength="42.6504" x="274.6708" y="305.7855">&#171;JUnit&#187;</text><text fill="#000000" font-family="sans-serif" font-size="14" lengthAdjust="spacing" textLength="96.8721" x="247.56" y="321.6107">RFClienteTest</text></g><!--class RFEmpleadoTest--><g class="entity" data-qualified-name="P_TEST.RFEmpleadoTest" data-source-line="69" id="ent0033"><rect fill="#F1F1F1" height="40.2656" rx="2.5" ry="2.5" style="stroke:#181818;stroke-width:0.5;" width="123.6328" x="382.18" y="289.6469"/><text fill="#000000" font-family="sans-serif" font-size="12" font-style="italic" lengthAdjust="spacing" textLength="42.6504" x="422.6712" y="305.7855">&#171;JUnit&#187;</text><text fill="#000000" font-family="sans-serif" font-size="14" lengthAdjust="spacing" textLength="117.6328" x="385.18" y="321.6107">RFEmpleadoTest</text></g><!--class RFAdminTest--><g class="entity" data-qualified-name="P_TEST.RFAdminTest" data-source-line="70" id="ent0034"><rect fill="#F1F1F1" height="40.2656" rx="2.5" ry="2.5" style="stroke:#181818;stroke-width:0.5;" width="98.5928" x="540.7" y="289.6469"/><text fill="#000000" font-family="sans-serif" font-size="12" font-style="italic" lengthAdjust="spacing" textLength="42.6504" x="568.6712" y="305.7855">&#171;JUnit&#187;</text><text fill="#000000" font-family="sans-serif" font-size="14" lengthAdjust="spacing" textLength="92.5928" x="543.7" y="321.6107">RFAdminTest</text></g><!--class TorneoTest--><g class="entity" data-qualified-name="P_TEST.TorneoTest" data-source-line="71" id="ent0035"><rect fill="#F1F1F1" height="40.2656" rx="2.5" ry="2.5" style="stroke:#181818;stroke-width:0.5;" width="84.873" x="22.56" y="289.6469"/><text fill="#000000" font-family="sans-serif" font-size="12" font-style="italic" lengthAdjust="spacing" textLength="42.6504" x="43.6713" y="305.7855">&#171;JUnit&#187;</text><text fill="#000000" font-family="sans-serif" font-size="14" lengthAdjust="spacing" textLength="78.873" x="25.56" y="321.6107">TorneoTest</text></g><!--class ARCHIVO--><g class="entity" data-qualified-name="ARCHIVO" data-source-line="103" id="ent0055"><rect fill="#F1F1F1" height="26.2969" rx="2.5" ry="2.5" style="stroke:#181818;stroke-width:0.5;" width="70.333" x="1049.83" y="624.8569"/><text fill="#000000" font-family="sans-serif" font-size="14" lengthAdjust="spacing" textLength="64.333" x="1052.83" y="642.852">ARCHIVO</text></g><!--link InterfazConsola to Cafe--><g class="link" data-entity-1="ent0003" data-entity-2="ent0015" data-link-type="dependency" data-source-line="79" id="lnk36"><path codeLine="79" d="M879.53,349.7469 C681.94,349.7469 169.68,349.7469 169.68,349.7469 C169.68,349.7469 169.68,433.8769 169.68,468.7269" fill="none" id="InterfazConsola-to-Cafe" style="stroke:#181818;stroke-width:1;"/><polygon fill="#181818" points="169.68,474.7269,173.68,465.7269,169.68,469.7269,165.68,465.7269,169.68,474.7269" style="stroke:#181818;stroke-width:1;"/><text fill="#000000" font-family="sans-serif" font-size="13" lengthAdjust="spacing" textLength="22.9785" x="439.12" y="345.8138">usa</text></g><!--link InterfazConsola to GestorPersistencia--><g class="link" data-entity-1="ent0003" data-entity-2="ent0028" data-link-type="dependency" data-source-line="80" id="lnk37"><path codeLine="80" d="M1008.53,367.7269 C1008.53,391.8469 1008.53,413.4669 1008.53,436.1769" fill="none" id="InterfazConsola-to-GestorPersistencia" style="stroke:#181818;stroke-width:1;"/><polygon fill="#181818" points="1008.53,442.1769,1012.53,433.1769,1008.53,437.1769,1004.53,433.1769,1008.53,442.1769" style="stroke:#181818;stroke-width:1;"/><text fill="#000000" font-family="sans-serif" font-size="13" lengthAdjust="spacing" textLength="87.0771" x="920.53" y="401.0138">carga/guarda</text></g><!--link MainAdmin to Cafe--><g class="link" data-entity-1="ent0005" data-entity-2="ent0015" data-link-type="dependency" data-source-line="82" id="lnk38"><path codeLine="82" d="M1213.45,92.7469 C1204.15,92.7469 1197.02,92.7469 1197.02,92.7469 C1197.02,92.7469 1197.02,386.7469 1197.02,386.7469 C1197.02,386.7469 176,386.7469 176,386.7469 C176,386.7469 176,441.4769 176,468.9869" fill="none" id="MainAdmin-to-Cafe" style="stroke:#181818;stroke-width:1;"/><polygon fill="#181818" points="176,474.9869,180,465.9869,176,469.9869,172,465.9869,176,474.9869" style="stroke:#181818;stroke-width:1;"/></g><!--link MainMesero to Cafe--><g class="link" data-entity-1="ent0006" data-entity-2="ent0015" data-link-type="dependency" data-source-line="83" id="lnk39"><path codeLine="83" d="M1339.35,92.7469 C1330.73,92.7469 1324.36,92.7469 1324.36,92.7469 C1324.36,92.7469 1324.36,405.7469 1324.36,405.7469 C1324.36,405.7469 182.32,405.7469 182.32,405.7469 C182.32,405.7469 182.32,445.1969 182.32,468.6369" fill="none" id="MainMesero-to-Cafe" style="stroke:#181818;stroke-width:1;"/><polygon fill="#181818" points="182.32,474.6369,186.32,465.6369,182.32,469.6369,178.32,465.6369,182.32,474.6369" style="stroke:#181818;stroke-width:1;"/></g><!--link MainCocinero to Cafe--><g class="link" data-entity-1="ent0007" data-entity-2="ent0015" data-link-type="dependency" data-source-line="84" id="lnk40"><path codeLine="84" d="M1474.05,92.7469 C1465.38,92.7469 1459.1,92.7469 1459.1,92.7469 C1459.1,92.7469 1459.1,424.7469 1459.1,424.7469 C1459.1,424.7469 188.63,424.7469 188.63,424.7469 C188.63,424.7469 188.63,450.1469 188.63,468.7969" fill="none" id="MainCocinero-to-Cafe" style="stroke:#181818;stroke-width:1;"/><polygon fill="#181818" points="188.63,474.7969,192.63,465.7969,188.63,469.7969,184.63,465.7969,188.63,474.7969" style="stroke:#181818;stroke-width:1;"/></g><!--link MainCliente to Cafe--><g class="link" data-entity-1="ent0008" data-entity-2="ent0015" data-link-type="dependency" data-source-line="85" id="lnk41"><path codeLine="85" d="M1087.6,92.7469 C968.48,92.7469 650.85,92.7469 650.85,92.7469 C650.85,92.7469 650.85,487.7469 650.85,487.7469 C650.85,487.7469 290.04,487.7469 201.2,487.7469" fill="none" id="MainCliente-to-Cafe" style="stroke:#181818;stroke-width:1;"/><polygon fill="#181818" points="195.2,487.7469,204.2,491.7469,200.2,487.7469,204.2,483.7469,195.2,487.7469" style="stroke:#181818;stroke-width:1;"/></g><!--link LoginFrame to Cafe--><g class="link" data-entity-1="ent0009" data-entity-2="ent0015" data-link-type="dependency" data-source-line="86" id="lnk42"><path codeLine="86" d="M1087.4,178.7469 C970.18,178.7469 662.39,178.7469 662.39,178.7469 C662.39,178.7469 662.39,489.7469 662.39,489.7469 C662.39,489.7469 291.83,489.7469 201.37,489.7469" fill="none" id="LoginFrame-to-Cafe" style="stroke:#181818;stroke-width:1;"/><polygon fill="#181818" points="195.37,489.7469,204.37,493.7469,200.37,489.7469,204.37,485.7469,195.37,489.7469" style="stroke:#181818;stroke-width:1;"/></g><!--link MainAdmin to AdminFrame--><g class="link" data-entity-1="ent0005" data-entity-2="ent0010" data-link-type="dependency" data-source-line="87" id="lnk43"><path codeLine="87" d="M1256,105.9269 C1256,122.1369 1256,143.1769 1256,159.3469" fill="none" id="MainAdmin-to-AdminFrame" style="stroke:#181818;stroke-width:1;stroke-dasharray:7,7;"/><polygon fill="#181818" points="1256,165.3469,1260,156.3469,1256,160.3469,1252,156.3469,1256,165.3469" style="stroke:#181818;stroke-width:1;"/><text fill="#000000" font-family="sans-serif" font-size="13" lengthAdjust="spacing" textLength="29.561" x="1226" y="131.7038">abre</text></g><!--link MainMesero to MeseroFrame--><g class="link" data-entity-1="ent0006" data-entity-2="ent0011" data-link-type="dependency" data-source-line="88" id="lnk44"><path codeLine="88" d="M1386.2,105.9269 C1386.2,122.1369 1386.2,143.1769 1386.2,159.3469" fill="none" id="MainMesero-to-MeseroFrame" style="stroke:#181818;stroke-width:1;stroke-dasharray:7,7;"/><polygon fill="#181818" points="1386.2,165.3469,1390.2,156.3469,1386.2,160.3469,1382.2,156.3469,1386.2,165.3469" style="stroke:#181818;stroke-width:1;"/><text fill="#000000" font-family="sans-serif" font-size="13" lengthAdjust="spacing" textLength="29.561" x="1356.2" y="131.7038">abre</text></g><!--link MainCocinero to CocineroFrame--><g class="link" data-entity-1="ent0007" data-entity-2="ent0012" data-link-type="dependency" data-source-line="89" id="lnk45"><path codeLine="89" d="M1527.2,105.9269 C1527.2,122.1369 1527.2,143.1769 1527.2,159.3469" fill="none" id="MainCocinero-to-CocineroFrame" style="stroke:#181818;stroke-width:1;stroke-dasharray:7,7;"/><polygon fill="#181818" points="1527.2,165.3469,1531.2,156.3469,1527.2,160.3469,1523.2,156.3469,1527.2,165.3469" style="stroke:#181818;stroke-width:1;"/><text fill="#000000" font-family="sans-serif" font-size="13" lengthAdjust="spacing" textLength="29.561" x="1497.2" y="131.7038">abre</text></g><!--link MainCliente to LoginFrame--><g class="link" data-entity-1="ent0008" data-entity-2="ent0009" data-link-type="dependency" data-source-line="90" id="lnk46"><path codeLine="90" d="M1132,105.9269 C1132,122.1369 1132,143.1769 1132,159.3469" fill="none" id="MainCliente-to-LoginFrame" style="stroke:#181818;stroke-width:1;stroke-dasharray:7,7;"/><polygon fill="#181818" points="1132,165.3469,1136,156.3469,1132,160.3469,1128,156.3469,1132,165.3469" style="stroke:#181818;stroke-width:1;"/><text fill="#000000" font-family="sans-serif" font-size="13" lengthAdjust="spacing" textLength="29.561" x="1102" y="131.7038">abre</text></g><!--link LoginFrame to ClienteFrame--><g class="link" data-entity-1="ent0009" data-entity-2="ent0013" data-link-type="dependency" data-source-line="91" id="lnk47"><path codeLine="91" d="M1132,192.3269 C1132,225.0969 1132,305.7469 1132,305.7469 C1132,305.7469 1167.31,305.7469 1202.81,305.7469" fill="none" id="LoginFrame-to-ClienteFrame" style="stroke:#181818;stroke-width:1;stroke-dasharray:7,7;"/><polygon fill="#181818" points="1208.81,305.7469,1199.81,301.7469,1203.81,305.7469,1199.81,309.7469,1208.81,305.7469" style="stroke:#181818;stroke-width:1;"/><text fill="#000000" font-family="sans-serif" font-size="13" lengthAdjust="spacing" textLength="29.561" x="1102" y="283.5138">abre</text></g><!--link AdminFrame to GestorPersistencia--><g class="link" data-entity-1="ent0010" data-entity-2="ent0028" data-link-type="dependency" data-source-line="92" id="lnk48"><path codeLine="92" d="M1211.2,178.7469 C1194.2,178.7469 1179.2,178.7469 1179.2,178.7469 C1179.2,178.7469 1179.2,350.0369 1179.2,436.2569" fill="none" id="AdminFrame-to-GestorPersistencia" style="stroke:#181818;stroke-width:1;"/><polygon fill="#181818" points="1179.2,442.2569,1183.2,433.2569,1179.2,437.2569,1175.2,433.2569,1179.2,442.2569" style="stroke:#181818;stroke-width:1;"/></g><!--link MeseroFrame to GestorPersistencia--><g class="link" data-entity-1="ent0011" data-entity-2="ent0028" data-link-type="dependency" data-source-line="93" id="lnk49"><path codeLine="93" d="M1393,192.1769 C1393,249.8969 1393,473.7469 1393,473.7469 C1393,473.7469 1281.3,473.7469 1191.42,473.7469" fill="none" id="MeseroFrame-to-GestorPersistencia" style="stroke:#181818;stroke-width:1;"/><polygon fill="#181818" points="1185.42,473.7469,1194.42,477.7469,1190.42,473.7469,1194.42,469.7469,1185.42,473.7469" style="stroke:#181818;stroke-width:1;"/></g><!--link CocineroFrame to GestorPersistencia--><g class="link" data-entity-1="ent0012" data-entity-2="ent0028" data-link-type="dependency" data-source-line="94" id="lnk50"><path codeLine="94" d="M1535,192.2869 C1535,253.7969 1535,503.7469 1535,503.7469 C1535,503.7469 1324.05,503.7469 1191.43,503.7469" fill="none" id="CocineroFrame-to-GestorPersistencia" style="stroke:#181818;stroke-width:1;"/><polygon fill="#181818" points="1185.43,503.7469,1194.43,507.7469,1190.43,503.7469,1194.43,499.7469,1185.43,503.7469" style="stroke:#181818;stroke-width:1;"/></g><!--link ClienteFrame to GestorPersistencia--><g class="link" data-entity-1="ent0013" data-entity-2="ent0028" data-link-type="dependency" data-source-line="95" id="lnk51"><path codeLine="95" d="M1208.97,314.7469 C1194.28,314.7469 1182.07,314.7469 1182.07,314.7469 C1182.07,314.7469 1182.07,384.8169 1182.07,436.2169" fill="none" id="ClienteFrame-to-GestorPersistencia" style="stroke:#181818;stroke-width:1;"/><polygon fill="#181818" points="1182.07,442.2169,1186.07,433.2169,1182.07,437.2169,1178.07,433.2169,1182.07,442.2169" style="stroke:#181818;stroke-width:1;"/></g><!--reverse link Cafe to P_DOMINIO--><g class="link" data-entity-1="ent0015" data-entity-2="ent0017" data-link-type="composition" data-source-line="98" id="lnk52"><path codeLine="98" d="M207.18,498.7469 C288.04,498.7469 585,498.7469 585,498.7469 C585,498.7469 585,531.4194 585,565.1131 C585,569.3248 585,573.5525 585,577.7343 C585,578.7798 585,579.8224 585,580.8611 C585,581.1208 585,581.3803 585,581.6395" fill="none" id="Cafe-backto-P_DOMINIO" style="stroke:#181818;stroke-width:1;"/><polygon fill="#181818" points="195.18,498.7469,201.18,502.7469,207.18,498.7469,201.18,494.7469,195.18,498.7469" style="stroke:#181818;stroke-width:1;"/><text fill="#000000" font-family="sans-serif" font-size="13" lengthAdjust="spacing" textLength="57.624" x="401.52" y="494.8138">orquesta</text></g><!--link Cafe to Informe--><g class="link" data-entity-1="ent0015" data-entity-2="ent0016" data-link-type="dependency" data-source-line="99" id="lnk53"><path codeLine="99" d="M176,501.8169 C176,530.3269 176,590.2069 176,618.5869" fill="none" id="Cafe-to-Informe" style="stroke:#181818;stroke-width:1;stroke-dasharray:7,7;"/><polygon fill="#181818" points="176,624.5869,180,615.5869,176,619.5869,172,615.5869,176,624.5869" style="stroke:#181818;stroke-width:1;"/><text fill="#000000" font-family="sans-serif" font-size="13" lengthAdjust="spacing" textLength="53.187" x="122" y="559.2738">produce</text></g><!--link GestorPersistencia to Cafe--><g class="link" data-entity-1="ent0028" data-entity-2="ent0015" data-link-type="dependency" data-source-line="102" id="lnk54"><path codeLine="102" d="M984.68,495.7469 C774.14,495.7469 303.17,495.7469 201.35,495.7469" fill="none" id="GestorPersistencia-to-Cafe" style="stroke:#181818;stroke-width:1;stroke-dasharray:7,7;"/><polygon fill="#181818" points="195.35,495.7469,204.35,499.7469,200.35,495.7469,204.35,491.7469,195.35,495.7469" style="stroke:#181818;stroke-width:1;"/><text fill="#000000" font-family="sans-serif" font-size="13" lengthAdjust="spacing" textLength="53.7075" x="536.02" y="508.8138">serializa</text></g><!--link GestorPersistencia to ARCHIVO--><g class="link" data-entity-1="ent0028" data-entity-2="ent0055" data-link-type="dependency" data-source-line="103" id="lnk56"><path codeLine="103" d="M1085,534.0069 C1085,565.1369 1085,598.2369 1085,618.4769" fill="none" id="GestorPersistencia-to-ARCHIVO" style="stroke:#181818;stroke-width:1;stroke-dasharray:7,7;"/><polygon fill="#181818" points="1085,624.4769,1089,615.4769,1085,619.4769,1081,615.4769,1085,624.4769" style="stroke:#181818;stroke-width:1;"/><text fill="#000000" font-family="sans-serif" font-size="13" lengthAdjust="spacing" textLength="71.1128" x="1013" y="575.3038">lee/escribe</text></g><!--link PruebasAutomaticas to Cafe--><g class="link" data-entity-1="ent0030" data-entity-2="ent0015" data-link-type="dependency" data-source-line="106" id="lnk57"><path codeLine="106" d="M723.98,330.0569 C723.98,377.6969 723.98,492.7469 723.98,492.7469 C723.98,492.7469 298.17,492.7469 201.18,492.7469" fill="none" id="PruebasAutomaticas-to-Cafe" style="stroke:#181818;stroke-width:1;stroke-dasharray:7,7;"/><polygon fill="#181818" points="195.18,492.7469,204.18,496.7469,200.18,492.7469,204.18,488.7469,195.18,492.7469" style="stroke:#181818;stroke-width:1;"/><text fill="#000000" font-family="sans-serif" font-size="13" lengthAdjust="spacing" textLength="47.9502" x="492.93" y="488.8138">verifica</text></g><!--link PruebasAutomaticas to GestorPersistencia--><g class="link" data-entity-1="ent0030" data-entity-2="ent0028" data-link-type="dependency" data-source-line="107" id="lnk58"><path codeLine="107" d="M774.02,330.3169 C774.02,371.3869 774.02,459.7469 774.02,459.7469 C774.02,459.7469 887.98,459.7469 978.89,459.7469" fill="none" id="PruebasAutomaticas-to-GestorPersistencia" style="stroke:#181818;stroke-width:1;stroke-dasharray:7,7;"/><polygon fill="#181818" points="984.89,459.7469,975.89,455.7469,979.89,459.7469,975.89,463.7469,984.89,459.7469" style="stroke:#181818;stroke-width:1;"/></g><!--link CafeTest to Cafe--><g class="link" data-entity-1="ent0031" data-entity-2="ent0015" data-link-type="dependency" data-source-line="108" id="lnk59"><path codeLine="108" d="M163.37,330.2569 C163.37,367.2469 163.37,438.2369 163.37,469.0769" fill="none" id="CafeTest-to-Cafe" style="stroke:#181818;stroke-width:1;stroke-dasharray:7,7;"/><polygon fill="#181818" points="163.37,475.0769,167.37,466.0769,163.37,470.0769,159.37,466.0769,163.37,475.0769" style="stroke:#181818;stroke-width:1;"/></g><!--link RFClienteTest to Cafe--><g class="link" data-entity-1="ent0032" data-entity-2="ent0015" data-link-type="dependency" data-source-line="109" id="lnk60"><path codeLine="109" d="M258.78,330.1569 C258.78,375.0969 258.78,478.7469 258.78,478.7469 C258.78,478.7469 225.65,478.7469 201.2,478.7469" fill="none" id="RFClienteTest-to-Cafe" style="stroke:#181818;stroke-width:1;stroke-dasharray:7,7;"/><polygon fill="#181818" points="195.2,478.7469,204.2,482.7469,200.2,478.7469,204.2,474.7469,195.2,478.7469" style="stroke:#181818;stroke-width:1;"/></g><!--link RFEmpleadoTest to Cafe--><g class="link" data-entity-1="ent0033" data-entity-2="ent0015" data-link-type="dependency" data-source-line="110" id="lnk61"><path codeLine="110" d="M406.62,330.1769 C406.62,375.7369 406.62,481.7469 406.62,481.7469 C406.62,481.7469 256.69,481.7469 201.27,481.7469" fill="none" id="RFEmpleadoTest-to-Cafe" style="stroke:#181818;stroke-width:1;stroke-dasharray:7,7;"/><polygon fill="#181818" points="195.27,481.7469,204.27,485.7469,200.27,481.7469,204.27,477.7469,195.27,481.7469" style="stroke:#181818;stroke-width:1;"/></g><!--link RFAdminTest to Cafe--><g class="link" data-entity-1="ent0034" data-entity-2="ent0015" data-link-type="dependency" data-source-line="111" id="lnk62"><path codeLine="111" d="M550.88,330.1869 C550.88,376.3469 550.88,484.7469 550.88,484.7469 C550.88,484.7469 278.13,484.7469 201.37,484.7469" fill="none" id="RFAdminTest-to-Cafe" style="stroke:#181818;stroke-width:1;stroke-dasharray:7,7;"/><polygon fill="#181818" points="195.37,484.7469,204.37,488.7469,200.37,484.7469,204.37,480.7469,195.37,484.7469" style="stroke:#181818;stroke-width:1;"/></g><!--link TorneoTest to Cafe--><g class="link" data-entity-1="ent0035" data-entity-2="ent0015" data-link-type="dependency" data-source-line="112" id="lnk63"><path codeLine="112" d="M65,330.3069 C65,377.3169 65,488.7469 65,488.7469 C65,488.7469 118.86,488.7469 150.67,488.7469" fill="none" id="TorneoTest-to-Cafe" style="stroke:#181818;stroke-width:1;stroke-dasharray:7,7;"/><polygon fill="#181818" points="156.67,488.7469,147.67,484.7469,151.67,488.7469,147.67,492.7469,156.67,488.7469" style="stroke:#181818;stroke-width:1;"/></g><?plantuml-src fLPDRjiu5Dxh54IwgDF2RWS3p2980yWovL7WFqXs5jq4ZCGeR2HHGr8Pf4M0tg5pWLdEUewGc_GaVH8bcrJj0acyIjxx7jyFFtvFYgcCeZ4d8a5JabFaaUl7_z3th__0NoMHAA4PaamgcXF7aRUiA8aWEIf9V4jI6gbx21SqLgH8Cse0CbPGTLzIn8MwuSuDIoYYUQdkKKxpAogaDiLCn13dl4OVdl03kEUkN3J1A5YiSUYx7z6W55JIGf6OFVvV73_rnBOXT1GKYefhyXdLrV52yemS8HZ4wj9RBgBbp4MlV1VZYOk-E0X-SKQaH5sKfoDQN_rxYtB2YW4HgJpU6eSmXQ9oanmyez6exvX39uBlytWyXi4Uy6KC-gSxruFpiAUlL3p-UyrYWWRHtwn8Zzlkfg7h1nvqXrt_TnYisTqSEcYAxTbqdJrZLsBVhAiph3EUii87ifZ69atVgFFqhLsYd-mwapO_l81RiyTlqteaWvp3C-3FvzIyYMy7FLzEy6m9S_x3_yqVMtE6nqSjKbrpeNlO7ZNXC1_MdJLPpeD5K1y6ZFJjIpkgP4K4uxB10l9o4srC_wUAfeRtV8DDRqubsJddE3ATfU195IiZUXKkBG1DM6AwySIEfrAHt8gtij_LBtddlS0Bqokhb0fQnCo0H9kf2L5S5DGuVxqCNyI55GwZ85hZXHUup-R12dIlrjAwylO6stD1LCRmyDvRDpY58N5X1XcwCaIYKiGLyGsxu-W4HKh0QpPa9mR98MBD4pw8WLV7WBdZB34GAV0ZEGIfnUFvqmetUEn6Q7171Ql5veMYl18LlMelUtMvnit0F3p6zljfOMwbU4uKf9Nez5J15C_EUgzi3KRmdMyAPZj3lvMFNo1mNcQK9FmNa4R63lhN3JbxxkUmCyGprmkM2nmXl5Y7kBc0wAdd07wx7UgLLy5t0AnzhNfEVxKDXsVD284ibIHxtNk8UwBv-4vppd6sAsLxdhFRABQjq_cULL_JphXR9pPGPncDpepT0kMGAs6bh076dZ4Hsm9gZBLrB5HRK0qoQcaHXgKvnTXH7SGeR_yG7RE-0n2xl4CWC_i13912hoq4_vDILd2tG8f4xn-dOS2RuT1OGYVmhVTNLGkxzjPzjYiCV7fbD9zw5Z6W8qOozfaObDl3dsPecdNRY4CuD_J-32xgWZ9Atr4P2tQb4sjzG9qg5KREFTfXvEmY3i7s3RcJcUuOnzOMmsm9Yc7VgSZMQ4X7P_i1?></g></svg>