<svg xmlns="http://www.w3.org/2000/svg" xmlns:xlink="http://www.w3.org/1999/xlink" contentStyleType="text/css" data-diagram-type="CLASS" height="731px" preserveAspectRatio="none" style="width:1811px;height:731px;background:#FFFFFF;" version="1.1" viewBox="0 0 1811 731" width="1811px" zoomAndPan="magnify"><?plantuml 1.2026.3beta6?><defs/><g><g class="title" data-source-line="1"><text fill="#000000" font-family="sans-serif" font-size="14" font-weight="700" lengthAdjust="spacing" textLength="363.3916" x="720.3042" y="22.9951">Board Game Caf&#233; &#8212; Arquitectura de alto nivel</text></g><!--cluster P_MODELO--><g class="cluster" data-qualified-name="P_MODELO" data-source-line="12" id="ent0002"><rect fill="#E6F1FB" height="186.59" rx="2.5" ry="2.5" style="stroke:#000000;stroke-width:1.5;" width="277" x="7" y="44.2969"/><text fill="#000000" font-family="sans-serif" font-size="14" font-weight="700" lengthAdjust="spacing" textLength="58.1396" x="116.4302" y="59.292">modelo</text></g><!--cluster P_USUARIOS--><g class="cluster" data-qualified-name="P_USUARIOS" data-source-line="18" id="ent0006"><rect fill="#FAEEDA" height="312.89" rx="2.5" ry="2.5" style="stroke:#000000;stroke-width:1.5;" width="355" x="754" y="404.1869"/><text fill="#000000" font-family="sans-serif" font-size="14" font-weight="700" lengthAdjust="spacing" textLength="67.3682" x="897.8159" y="419.182">usuarios</text></g><!--cluster P_JUEGOS--><g class="cluster" data-qualified-name="P_JUEGOS" data-source-line="29" id="ent0015"><rect fill="#EAF3DE" height="179.59" rx="2.5" ry="2.5" style="stroke:#000000;stroke-width:1.5;" width="332" x="1149" y="537.4869"/><text fill="#000000" font-family="sans-serif" font-size="14" font-weight="700" lengthAdjust="spacing" textLength="52.2334" x="1288.8833" y="552.482">juegos</text></g><!--cluster P_MESAS--><g class="cluster" data-qualified-name="P_MESAS" data-source-line="35" id="ent0019"><rect fill="#FBEAF0" height="93.3" rx="2.5" ry="2.5" style="stroke:#000000;stroke-width:1.5;" width="110" x="575" y="270.8869"/><text fill="#000000" font-family="sans-serif" font-size="14" font-weight="700" lengthAdjust="spacing" textLength="50.1963" x="604.9019" y="285.882">mesas</text></g><!--cluster P_PRODUCTOS--><g class="cluster" data-qualified-name="P_PRODUCTOS" data-source-line="39" id="ent0021"><rect fill="#E1F5EE" height="226.6" rx="2.5" ry="2.5" style="stroke:#000000;stroke-width:1.5;" width="264" x="271" y="270.8869"/><text fill="#000000" font-family="sans-serif" font-size="14" font-weight="700" lengthAdjust="spacing" textLength="79.4746" x="363.2627" y="285.882">productos</text></g><!--cluster P_PEDIDOS--><g class="cluster" data-qualified-name="P_PEDIDOS" data-source-line="45" id="ent0025"><rect fill="#EEEDFE" height="93.29" rx="2.5" ry="2.5" style="stroke:#000000;stroke-width:1.5;" width="259" x="324" y="137.5969"/><text fill="#000000" font-family="sans-serif" font-size="14" font-weight="700" lengthAdjust="spacing" textLength="62.3096" x="422.3452" y="152.592">pedidos</text></g><!--cluster P_PRESTAMOS--><g class="cluster" data-qualified-name="P_PRESTAMOS" data-source-line="50" id="ent0028"><rect fill="#FAECE7" height="93.29" rx="2.5" ry="2.5" style="stroke:#000000;stroke-width:1.5;" width="140" x="897" y="137.5969"/><text fill="#000000" font-family="sans-serif" font-size="14" font-weight="700" lengthAdjust="spacing" textLength="83.4326" x="925.2837" y="152.592">prestamos</text></g><!--cluster P_VENTAS--><g class="cluster" data-qualified-name="P_VENTAS" data-source-line="54" id="ent0030"><rect fill="#FCEBEB" height="93.3" rx="2.5" ry="2.5" style="stroke:#000000;stroke-width:1.5;" width="286" x="1195" y="270.8869"/><text fill="#000000" font-family="sans-serif" font-size="14" font-weight="700" lengthAdjust="spacing" textLength="53.0605" x="1311.4697" y="285.882">ventas</text></g><!--cluster P_SUGERENCIAS--><g class="cluster" data-qualified-name="P_SUGERENCIAS" data-source-line="59" id="ent0033"><rect fill="#F1EFE8" height="93.29" rx="2.5" ry="2.5" style="stroke:#000000;stroke-width:1.5;" width="187" x="670" y="137.5969"/><text fill="#000000" font-family="sans-serif" font-size="14" font-weight="700" lengthAdjust="spacing" textLength="95.0605" x="715.9697" y="152.592">sugerencias</text></g><!--cluster P_TORNEOS--><g class="cluster" data-qualified-name="P_TORNEOS" data-source-line="63" id="ent0035"><rect fill="#EEEDFE" height="226.6" rx="2.5" ry="2.5" style="stroke:#000000;stroke-width:1.5;" width="276" x="1521" y="270.8869"/><text fill="#000000" font-family="sans-serif" font-size="14" font-weight="700" lengthAdjust="spacing" textLength="60.6279" x="1628.686" y="285.882">torneos</text></g><!--class Cafe--><g class="entity" data-qualified-name="P_MODELO.Cafe" data-source-line="13" id="ent0003"><rect fill="#F1F1F1" height="26.2969" rx="2.5" ry="2.5" style="stroke:#181818;stroke-width:0.5;" width="37.8965" x="31.05" y="87.2969"/><text fill="#000000" font-family="sans-serif" font-size="14" lengthAdjust="spacing" textLength="31.8965" x="34.05" y="105.292">Cafe</text></g><!--class GestorPersistencia--><g class="entity" data-qualified-name="P_MODELO.GestorPersistencia" data-source-line="14" id="ent0004"><rect fill="#F1F1F1" height="26.2969" rx="2.5" ry="2.5" style="stroke:#181818;stroke-width:0.5;" width="136.9971" x="103.5" y="87.2969"/><text fill="#000000" font-family="sans-serif" font-size="14" lengthAdjust="spacing" textLength="130.9971" x="106.5" y="105.292">GestorPersistencia</text></g><!--class Informe--><g class="entity" data-qualified-name="P_MODELO.Informe" data-source-line="15" id="ent0005"><rect fill="#F1F1F1" height="26.2969" rx="2.5" ry="2.5" style="stroke:#181818;stroke-width:0.5;" width="60.5029" x="99.75" y="180.5969"/><text fill="#000000" font-family="sans-serif" font-size="14" lengthAdjust="spacing" textLength="54.5029" x="102.75" y="198.592">Informe</text></g><!--class Usuario--><g class="entity" data-qualified-name="P_USUARIOS.Usuario" data-source-line="19" id="ent0007"><rect fill="#F1F1F1" height="26.2969" rx="2.5" ry="2.5" style="stroke:#181818;stroke-width:0.5;" width="59.2041" x="805.4" y="447.1869"/><text fill="#000000" font-family="sans-serif" font-size="14" font-style="italic" lengthAdjust="spacing" textLength="53.2041" x="808.4" y="465.182">Usuario</text></g><!--class Cliente--><g class="entity" data-qualified-name="P_USUARIOS.Cliente" data-source-line="20" id="ent0008"><rect fill="#F1F1F1" height="26.2969" rx="2.5" ry="2.5" style="stroke:#181818;stroke-width:0.5;" width="55.1436" x="899.43" y="447.1869"/><text fill="#000000" font-family="sans-serif" font-size="14" lengthAdjust="spacing" textLength="49.1436" x="902.43" y="465.182">Cliente</text></g><!--class Empleado--><g class="entity" data-qualified-name="P_USUARIOS.Empleado" data-source-line="21" id="ent0009"><rect fill="#F1F1F1" height="26.2969" rx="2.5" ry="2.5" style="stroke:#181818;stroke-width:0.5;" width="75.9043" x="990.05" y="447.1869"/><text fill="#000000" font-family="sans-serif" font-size="14" font-style="italic" lengthAdjust="spacing" textLength="69.9043" x="993.05" y="465.182">Empleado</text></g><!--class Mesero--><g class="entity" data-qualified-name="P_USUARIOS.Mesero" data-source-line="22" id="ent0010"><rect fill="#F1F1F1" height="26.2969" rx="2.5" ry="2.5" style="stroke:#181818;stroke-width:0.5;" width="56.9209" x="777.54" y="580.4869"/><text fill="#000000" font-family="sans-serif" font-size="14" lengthAdjust="spacing" textLength="50.9209" x="780.54" y="598.482">Mesero</text></g><!--class Cocinero--><g class="entity" data-qualified-name="P_USUARIOS.Cocinero" data-source-line="23" id="ent0011"><rect fill="#F1F1F1" height="26.2969" rx="2.5" ry="2.5" style="stroke:#181818;stroke-width:0.5;" width="67.7354" x="869.13" y="580.4869"/><text fill="#000000" font-family="sans-serif" font-size="14" lengthAdjust="spacing" textLength="61.7354" x="872.13" y="598.482">Cocinero</text></g><!--class Administrador--><g class="entity" data-qualified-name="P_USUARIOS.Administrador" data-source-line="24" id="ent0012"><rect fill="#F1F1F1" height="26.2969" rx="2.5" ry="2.5" style="stroke:#181818;stroke-width:0.5;" width="105.0801" x="971.46" y="580.4869"/><text fill="#000000" font-family="sans-serif" font-size="14" lengthAdjust="spacing" textLength="99.0801" x="974.46" y="598.482">Administrador</text></g><!--class Turno--><g class="entity" data-qualified-name="P_USUARIOS.Turno" data-source-line="25" id="ent0013"><rect fill="#F1F1F1" height="26.2969" rx="2.5" ry="2.5" style="stroke:#181818;stroke-width:0.5;" width="46.6191" x="782.69" y="666.7769"/><text fill="#000000" font-family="sans-serif" font-size="14" lengthAdjust="spacing" textLength="40.6191" x="785.69" y="684.772">Turno</text></g><!--class SolicitudCambioTurno--><g class="entity" data-qualified-name="P_USUARIOS.SolicitudCambioTurno" data-source-line="26" id="ent0014"><rect fill="#F1F1F1" height="26.2969" rx="2.5" ry="2.5" style="stroke:#181818;stroke-width:0.5;" width="160.0205" x="863.99" y="666.7769"/><text fill="#000000" font-family="sans-serif" font-size="14" lengthAdjust="spacing" textLength="154.0205" x="866.99" y="684.772">SolicitudCambioTurno</text></g><!--class JuegoMesa--><g class="entity" data-qualified-name="P_JUEGOS.JuegoMesa" data-source-line="30" id="ent0016"><rect fill="#F1F1F1" height="26.2969" rx="2.5" ry="2.5" style="stroke:#181818;stroke-width:0.5;" width="81.6328" x="1173.18" y="580.4869"/><text fill="#000000" font-family="sans-serif" font-size="14" font-style="italic" lengthAdjust="spacing" textLength="75.6328" x="1176.18" y="598.482">JuegoMesa</text></g><!--class JuegoMesaPrestamo--><g class="entity" data-qualified-name="P_JUEGOS.JuegoMesaPrestamo" data-source-line="31" id="ent0017"><rect fill="#F1F1F1" height="26.2969" rx="2.5" ry="2.5" style="stroke:#181818;stroke-width:0.5;" width="148.0098" x="1290" y="580.4869"/><text fill="#000000" font-family="sans-serif" font-size="14" lengthAdjust="spacing" textLength="142.0098" x="1293" y="598.482">JuegoMesaPrestamo</text></g><!--class JuegoMesaVenta--><g class="entity" data-qualified-name="P_JUEGOS.JuegoMesaVenta" data-source-line="32" id="ent0018"><rect fill="#F1F1F1" height="26.2969" rx="2.5" ry="2.5" style="stroke:#181818;stroke-width:0.5;" width="122.7646" x="1172.62" y="666.7769"/><text fill="#000000" font-family="sans-serif" font-size="14" lengthAdjust="spacing" textLength="116.7646" x="1175.62" y="684.772">JuegoMesaVenta</text></g><!--class Mesa--><g class="entity" data-qualified-name="P_MESAS.Mesa" data-source-line="36" id="ent0020"><rect fill="#F1F1F1" height="26.2969" rx="2.5" ry="2.5" style="stroke:#181818;stroke-width:0.5;" width="42.5654" x="598.72" y="313.8869"/><text fill="#000000" font-family="sans-serif" font-size="14" lengthAdjust="spacing" textLength="36.5654" x="601.72" y="331.882">Mesa</text></g><!--class ProductoMenu--><g class="entity" data-qualified-name="P_PRODUCTOS.ProductoMenu" data-source-line="40" id="ent0022"><rect fill="#F1F1F1" height="26.2969" rx="2.5" ry="2.5" style="stroke:#181818;stroke-width:0.5;" width="106.7139" x="294.64" y="313.8869"/><text fill="#000000" font-family="sans-serif" font-size="14" font-style="italic" lengthAdjust="spacing" textLength="100.7139" x="297.64" y="331.882">ProductoMenu</text></g><!--class Bebida--><g class="entity" data-qualified-name="P_PRODUCTOS.Bebida" data-source-line="41" id="ent0023"><rect fill="#F1F1F1" height="26.2969" rx="2.5" ry="2.5" style="stroke:#181818;stroke-width:0.5;" width="54.46" x="436.77" y="313.8869"/><text fill="#000000" font-family="sans-serif" font-size="14" lengthAdjust="spacing" textLength="48.46" x="439.77" y="331.882">Bebida</text></g><!--class Pasteleria--><g class="entity" data-qualified-name="P_PRODUCTOS.Pasteleria" data-source-line="42" id="ent0024"><rect fill="#F1F1F1" height="26.2969" rx="2.5" ry="2.5" style="stroke:#181818;stroke-width:0.5;" width="75.1455" x="310.43" y="447.1869"/><text fill="#000000" font-family="sans-serif" font-size="14" lengthAdjust="spacing" textLength="69.1455" x="313.43" y="465.182">Pasteleria</text></g><!--class Pedido--><g class="entity" data-qualified-name="P_PEDIDOS.Pedido" data-source-line="46" id="ent0026"><rect fill="#F1F1F1" height="26.2969" rx="2.5" ry="2.5" style="stroke:#181818;stroke-width:0.5;" width="53.2842" x="348.36" y="180.5969"/><text fill="#000000" font-family="sans-serif" font-size="14" lengthAdjust="spacing" textLength="47.2842" x="351.36" y="198.592">Pedido</text></g><!--class DetallePedido--><g class="entity" data-qualified-name="P_PEDIDOS.DetallePedido" data-source-line="47" id="ent0027"><rect fill="#F1F1F1" height="26.2969" rx="2.5" ry="2.5" style="stroke:#181818;stroke-width:0.5;" width="103.1387" x="436.43" y="180.5969"/><text fill="#000000" font-family="sans-serif" font-size="14" lengthAdjust="spacing" textLength="97.1387" x="439.43" y="198.592">DetallePedido</text></g><!--class Prestamo--><g class="entity" data-qualified-name="P_PRESTAMOS.Prestamo" data-source-line="51" id="ent0029"><rect fill="#F1F1F1" height="26.2969" rx="2.5" ry="2.5" style="stroke:#181818;stroke-width:0.5;" width="72.377" x="920.81" y="180.5969"/><text fill="#000000" font-family="sans-serif" font-size="14" lengthAdjust="spacing" textLength="66.377" x="923.81" y="198.592">Prestamo</text></g><!--class VentaJuego--><g class="entity" data-qualified-name="P_VENTAS.VentaJuego" data-source-line="55" id="ent0031"><rect fill="#F1F1F1" height="26.2969" rx="2.5" ry="2.5" style="stroke:#181818;stroke-width:0.5;" width="86.1992" x="1218.9" y="313.8869"/><text fill="#000000" font-family="sans-serif" font-size="14" lengthAdjust="spacing" textLength="80.1992" x="1221.9" y="331.882">VentaJuego</text></g><!--class DetalleVenta--><g class="entity" data-qualified-name="P_VENTAS.DetalleVenta" data-source-line="56" id="ent0032"><rect fill="#F1F1F1" height="26.2969" rx="2.5" ry="2.5" style="stroke:#181818;stroke-width:0.5;" width="96.9863" x="1340.51" y="313.8869"/><text fill="#000000" font-family="sans-serif" font-size="14" lengthAdjust="spacing" textLength="90.9863" x="1343.51" y="331.882">DetalleVenta</text></g><!--class SugerenciaPlato--><g class="entity" data-qualified-name="P_SUGERENCIAS.SugerenciaPlato" data-source-line="60" id="ent0034"><rect fill="#F1F1F1" height="26.2969" rx="2.5" ry="2.5" style="stroke:#181818;stroke-width:0.5;" width="119.6338" x="694.18" y="180.5969"/><text fill="#000000" font-family="sans-serif" font-size="14" lengthAdjust="spacing" textLength="113.6338" x="697.18" y="198.592">SugerenciaPlato</text></g><!--class Torneo--><g class="entity" data-qualified-name="P_TORNEOS.Torneo" data-source-line="64" id="ent0036"><rect fill="#F1F1F1" height="26.2969" rx="2.5" ry="2.5" style="stroke:#181818;stroke-width:0.5;" width="54.9248" x="1544.54" y="313.8869"/><text fill="#000000" font-family="sans-serif" font-size="14" font-style="italic" lengthAdjust="spacing" textLength="48.9248" x="1547.54" y="331.882">Torneo</text></g><!--class TorneoAmistoso--><g class="entity" data-qualified-name="P_TORNEOS.TorneoAmistoso" data-source-line="65" id="ent0037"><rect fill="#F1F1F1" height="26.2969" rx="2.5" ry="2.5" style="stroke:#181818;stroke-width:0.5;" width="119.2373" x="1634.38" y="313.8869"/><text fill="#000000" font-family="sans-serif" font-size="14" lengthAdjust="spacing" textLength="113.2373" x="1637.38" y="331.882">TorneoAmistoso</text></g><!--class TorneoCompetitivo--><g class="entity" data-qualified-name="P_TORNEOS.TorneoCompetitivo" data-source-line="66" id="ent0038"><rect fill="#F1F1F1" height="26.2969" rx="2.5" ry="2.5" style="stroke:#181818;stroke-width:0.5;" width="140.0117" x="1544.99" y="447.1869"/><text fill="#000000" font-family="sans-serif" font-size="14" lengthAdjust="spacing" textLength="134.0117" x="1547.99" y="465.182">TorneoCompetitivo</text></g><!--link P_MODELO to P_USUARIOS--><g class="link" data-entity-1="ent0002" data-entity-2="ent0006" data-link-type="dependency" data-source-line="73" id="lnk39"><path codeLine="73" d="M275.67,232.4096 C275.67,246.8542 275.67,262.0169 275.67,277.6477 C275.67,308.9093 275.67,342.0434 275.67,375.0506 C275.67,507.0794 275.67,637.0769 275.67,637.0769 C275.67,637.0769 481.92,637.0769 688.17,637.0769 C701.0606,637.0769 713.9513,637.0769 726.7915,637.0769 C733.2117,637.0769 739.6192,637.0769 746.0079,637.0769 C747.605,637.0769 743.201,637.0769 744.7957,637.0769" fill="none" id="P_MODELO-to-P_USUARIOS" style="stroke:#181818;stroke-width:1;"/><polygon fill="#181818" points="750.7957,637.0769,741.7957,633.0769,745.7957,637.0769,741.7957,641.0769,750.7957,637.0769" style="stroke:#181818;stroke-width:1;"/><text fill="#000000" font-family="sans-serif" font-size="13" lengthAdjust="spacing" textLength="55.8911" x="452.02" y="633.1438">gestiona</text></g><!--link P_MODELO to P_JUEGOS--><g class="link" data-entity-1="ent0002" data-entity-2="ent0015" data-link-type="dependency" data-source-line="74" id="lnk40"><path codeLine="74" d="M252,231.8901 C252,235.0844 252,238.3093 252,241.5612 C252,267.5769 252,295.3269 252,323.0769 C252,434.0769 252,545.0769 252,545.0769 C252,545.0769 557.1675,545.0769 862.335,545.0769 C938.6269,545.0769 1014.9188,545.0769 1086.4424,545.0769 C1104.3233,545.0769 1121.9062,545.0769 1139.1166,545.0769 C1141.2679,545.0769 1137.4133,545.0769 1139.5528,545.0769" fill="none" id="P_MODELO-to-P_JUEGOS" style="stroke:#181818;stroke-width:1;"/><polygon fill="#181818" points="1145.5528,545.0769,1136.5528,541.0769,1140.5528,545.0769,1136.5528,549.0769,1145.5528,545.0769" style="stroke:#181818;stroke-width:1;"/><text fill="#000000" font-family="sans-serif" font-size="13" lengthAdjust="spacing" textLength="132.5518" x="519.47" y="541.1438">gestiona inventarios</text></g><!--link P_MODELO to P_MESAS--><g class="link" data-entity-1="ent0002" data-entity-2="ent0019" data-link-type="dependency" data-source-line="75" id="lnk41"><path codeLine="75" d="M284.3151,96.0769 C284.7843,96.0769 285.2729,96.0769 285.7804,96.0769 C287.8105,96.0769 290.1439,96.0769 292.7574,96.0769 C303.2112,96.0769 318.1452,96.0769 336.0659,96.0769 C371.9075,96.0769 419.6963,96.0769 467.485,96.0769 C563.0625,96.0769 658.64,96.0769 658.64,96.0769 C658.64,96.0769 658.64,153.8269 658.64,211.5769 C658.64,226.0144 658.64,240.4519 658.64,253.987 C658.64,257.3708 658.64,260.6982 658.64,263.9551 C658.64,265.5836 658.64,267.1944 658.64,268.7858 C658.64,269.1837 658.64,263.5803 658.64,263.9757" fill="none" id="P_MODELO-to-P_MESAS" style="stroke:#181818;stroke-width:1;"/><polygon fill="#181818" points="658.64,269.9757,662.64,260.9757,658.64,264.9757,654.64,260.9757,658.64,269.9757" style="stroke:#181818;stroke-width:1;"/><text fill="#000000" font-family="sans-serif" font-size="13" lengthAdjust="spacing" textLength="55.8911" x="533.93" y="92.1438">gestiona</text></g><!--link P_MODELO to P_PRODUCTOS--><g class="link" data-entity-1="ent0002" data-entity-2="ent0021" data-link-type="dependency" data-source-line="76" id="lnk42"><path codeLine="76" d="M276.33,231.7808 C276.33,242.292 276.33,252.0508 276.33,260.3909 C276.33,262.476 276.33,264.4723 276.33,266.3696 C276.33,267.3183 276.33,268.2422 276.33,269.14 C276.33,269.5889 276.33,270.0313 276.33,270.467 C276.33,270.5759 276.33,264.6844 276.33,264.7925" fill="none" id="P_MODELO-to-P_PRODUCTOS" style="stroke:#181818;stroke-width:1;"/><polygon fill="#181818" points="276.33,270.7925,280.33,261.7925,276.33,265.7925,272.33,261.7925,276.33,270.7925" style="stroke:#181818;stroke-width:1;"/><text fill="#000000" font-family="sans-serif" font-size="13" lengthAdjust="spacing" textLength="97.1636" x="229.26" y="284.1438">gestiona men&#250;</text></g><!--link P_MODELO to P_PEDIDOS--><g class="link" data-entity-1="ent0002" data-entity-2="ent0025" data-link-type="dependency" data-source-line="77" id="lnk43"><path codeLine="77" d="M284.3323,101.0769 C285.1515,101.0769 286.0264,101.0769 286.9549,101.0769 C288.812,101.0769 290.8835,101.0769 293.1524,101.0769 C302.228,101.0769 314.4627,101.0769 328.7684,101.0769 C357.38,101.0769 394.2763,101.0769 430.755,101.0769 C503.7125,101.0769 575,101.0769 575,101.0769 C575,101.0769 575,106.3381 575,114.3533 C575,118.3609 575,123.0569 575,128.128 C575,130.6636 575,133.2929 575,135.9768 C575,136.3123 575,136.6486 575,136.9858 C575,137.1543 575,131.3231 575,131.492" fill="none" id="P_MODELO-to-P_PEDIDOS" style="stroke:#181818;stroke-width:1;"/><polygon fill="#181818" points="575,137.492,579,128.492,575,132.492,571,128.492,575,137.492" style="stroke:#181818;stroke-width:1;"/><text fill="#000000" font-family="sans-serif" font-size="13" lengthAdjust="spacing" textLength="50.3877" x="420.78" y="97.1438">registra</text></g><!--link P_MODELO to P_PRESTAMOS--><g class="link" data-entity-1="ent0002" data-entity-2="ent0028" data-link-type="dependency" data-source-line="78" id="lnk44"><path codeLine="78" d="M284.06,101.0769 C285.3697,101.0769 286.8316,101.0769 288.4405,101.0769 C294.8762,101.0769 303.6633,101.0769 314.4598,101.0769 C336.0528,101.0769 365.683,101.0769 400.6136,101.0769 C470.4747,101.0769 561.5369,101.0769 651.9038,101.0769 C832.6375,101.0769 1010.59,101.0769 1010.59,101.0769 C1010.59,101.0769 1010.59,106.8894 1010.59,115.6081 C1010.59,119.9675 1010.59,125.0534 1010.59,130.5027 C1010.59,131.865 1010.59,133.25 1010.59,134.652 C1010.59,135.353 1010.59,136.0583 1010.59,136.7671 C1010.59,136.9443 1010.59,131.1218 1010.59,131.2994" fill="none" id="P_MODELO-to-P_PRESTAMOS" style="stroke:#181818;stroke-width:1;"/><polygon fill="#181818" points="1010.59,137.2994,1014.59,128.2994,1010.59,132.2994,1006.59,128.2994,1010.59,137.2994" style="stroke:#181818;stroke-width:1;"/><text fill="#000000" font-family="sans-serif" font-size="13" lengthAdjust="spacing" textLength="50.3877" x="647.87" y="97.1438">registra</text></g><!--link P_MODELO to P_VENTAS--><g class="link" data-entity-1="ent0002" data-entity-2="ent0030" data-link-type="dependency" data-source-line="79" id="lnk45"><path codeLine="79" d="M284.6192,92.0769 C285.0701,92.0769 285.5374,92.0769 286.021,92.0769 C286.9881,92.0769 288.0204,92.0769 289.1166,92.0769 C297.8861,92.0769 310.748,92.0769 327.1178,92.0769 C359.8573,92.0769 406.628,92.0769 462.7528,92.0769 C575.0025,92.0769 724.6688,92.0769 874.335,92.0769 C1173.6675,92.0769 1473,92.0769 1473,92.0769 C1473,92.0769 1473,147.2044 1473,204.0544 C1473,218.2669 1473,232.587 1473,246.1804 C1473,252.9771 1473,259.5921 1473,265.921 C1473,267.5033 1473,263.0676 1473,264.6125" fill="none" id="P_MODELO-to-P_VENTAS" style="stroke:#181818;stroke-width:1;"/><polygon fill="#181818" points="1473,270.6125,1477,261.6125,1473,265.6125,1469,261.6125,1473,270.6125" style="stroke:#181818;stroke-width:1;"/><text fill="#000000" font-family="sans-serif" font-size="13" lengthAdjust="spacing" textLength="50.3877" x="936.68" y="88.1438">registra</text></g><!--link P_MODELO to P_SUGERENCIAS--><g class="link" data-entity-1="ent0002" data-entity-2="ent0033" data-link-type="dependency" data-source-line="80" id="lnk46"><path codeLine="80" d="M284.3383,148.0769 C284.7977,148.0769 285.2641,148.0769 285.7373,148.0769 C286.6838,148.0769 287.6576,148.0769 288.6582,148.0769 C304.668,148.0769 327.5391,148.0769 354.9844,148.0769 C409.875,148.0769 483.0625,148.0769 556.25,148.0769 C592.8438,148.0769 629.4375,148.0769 663.7441,148.0769 C664.8162,148.0769 665.8861,148.0769 666.9536,148.0769 C667.4874,148.0769 662.0206,148.0769 662.5532,148.0769" fill="none" id="P_MODELO-to-P_SUGERENCIAS" style="stroke:#181818;stroke-width:1;"/><polygon fill="#181818" points="668.5532,148.0769,659.5532,144.0769,663.5532,148.0769,659.5532,152.0769,668.5532,148.0769" style="stroke:#181818;stroke-width:1;"/><text fill="#000000" font-family="sans-serif" font-size="13" lengthAdjust="spacing" textLength="50.3877" x="498.2" y="144.1438">registra</text></g><!--link P_MODELO to P_TORNEOS--><g class="link" data-entity-1="ent0002" data-entity-2="ent0035" data-link-type="dependency" data-source-line="81" id="lnk47"><path codeLine="81" d="M285.3803,100.0769 C285.8916,100.0769 286.4232,100.0769 286.9748,100.0769 C288.0779,100.0769 289.2612,100.0769 290.5233,100.0769 C293.0474,100.0769 295.8866,100.0769 299.0298,100.0769 C311.6028,100.0769 329.0406,100.0769 350.6388,100.0769 C393.8351,100.0769 453.6727,100.0769 524.5153,100.0769 C666.2006,100.0769 851.9063,100.0769 1036.5425,100.0769 C1405.815,100.0769 1770.81,100.0769 1770.81,100.0769 C1770.81,100.0769 1770.81,156.8269 1770.81,213.5769 C1770.81,227.7644 1770.81,241.9519 1770.81,255.2527 C1770.81,258.5779 1770.81,261.8476 1770.81,265.0481 C1770.81,266.6484 1770.81,262.2313 1770.81,263.7952" fill="none" id="P_MODELO-to-P_TORNEOS" style="stroke:#181818;stroke-width:1;"/><polygon fill="#181818" points="1770.81,269.7952,1774.81,260.7952,1770.81,264.7952,1766.81,260.7952,1770.81,269.7952" style="stroke:#181818;stroke-width:1;"/><text fill="#000000" font-family="sans-serif" font-size="13" lengthAdjust="spacing" textLength="50.3877" x="1094.91" y="96.1438">registra</text></g><!--link P_USUARIOS to P_JUEGOS--><g class="link" data-entity-1="ent0006" data-entity-2="ent0015" data-link-type="dependency" data-source-line="84" id="lnk48"><path codeLine="84" d="M1109.0453,461.0769 C1109.2706,461.0769 1109.5003,461.0769 1109.7344,461.0769 C1110.6708,461.0769 1111.677,461.0769 1112.7505,461.0769 C1114.8976,461.0769 1117.3136,461.0769 1119.9775,461.0769 C1130.633,461.0769 1145.2548,461.0769 1162.4922,461.0769 C1196.9669,461.0769 1241.9038,461.0769 1286.4975,461.0769 C1375.685,461.0769 1463.5,461.0769 1463.5,461.0769 C1463.5,461.0769 1463.5,494.3269 1463.5,527.5769 C1463.5,529.655 1463.5,531.7331 1463.5,533.8031 C1463.5,534.8381 1463.5,529.8711 1463.5,530.901" fill="none" id="P_USUARIOS-to-P_JUEGOS" style="stroke:#181818;stroke-width:1;stroke-dasharray:7,7;"/><polygon fill="#181818" points="1463.5,536.901,1467.5,527.901,1463.5,531.901,1459.5,527.901,1463.5,536.901" style="stroke:#181818;stroke-width:1;"/><text fill="#000000" font-family="sans-serif" font-size="13" lengthAdjust="spacing" textLength="56.9702" x="1296.43" y="457.1438">favoritos</text></g><!--link P_PEDIDOS to P_MESAS--><g class="link" data-entity-1="ent0025" data-entity-2="ent0019" data-link-type="dependency" data-source-line="85" id="lnk49"><path codeLine="85" d="M583.1421,194.0769 C583.3599,194.0769 583.5814,194.0769 583.8065,194.0769 C584.2567,194.0769 584.7214,194.0769 585.1998,194.0769 C586.1566,194.0769 587.1685,194.0769 588.23,194.0769 C590.3531,194.0769 592.6748,194.0769 595.152,194.0769 C605.0609,194.0769 617.4581,194.0769 629.5838,194.0769 C653.835,194.0769 677,194.0769 677,194.0769 C677,194.0769 677,224.2744 677,255.8869 C677,259.8384 677,263.8121 677,267.7517 C677,268.7366 677,263.7193 677,264.6991" fill="none" id="P_PEDIDOS-to-P_MESAS" style="stroke:#181818;stroke-width:1;stroke-dasharray:7,7;"/><polygon fill="#181818" points="677,270.6991,681,261.6991,677,265.6991,673,261.6991,677,270.6991" style="stroke:#181818;stroke-width:1;"/><text fill="#000000" font-family="sans-serif" font-size="13" lengthAdjust="spacing" textLength="66.2251" x="610" y="205.5238">referencia</text></g><!--link P_PEDIDOS to P_PRODUCTOS--><g class="link" data-entity-1="ent0025" data-entity-2="ent0021" data-link-type="dependency" data-source-line="86" id="lnk50"><path codeLine="86" d="M575,231.0273 C575,231.2527 575,231.4787 575,231.7052 C575,232.1582 575,232.6134 575,233.0707 C575,233.9853 575,234.9081 575,235.8384 C575,237.699 575,239.5893 575,241.5022 C575,249.1538 575,257.1678 575,265.0931 C575,296.7944 575,327.0769 575,327.0769 C575,327.0769 564.8025,327.0769 553.8075,327.0769 C548.31,327.0769 542.6131,327.0769 537.8919,327.0769 C537.3017,327.0769 536.7268,327.0769 536.1694,327.0769 C535.8907,327.0769 535.6164,327.0769 535.3468,327.0769 C535.2794,327.0769 541.2123,327.0769 541.1455,327.0769" fill="none" id="P_PEDIDOS-to-P_PRODUCTOS" style="stroke:#181818;stroke-width:1;stroke-dasharray:7,7;"/><polygon fill="#181818" points="535.1455,327.0769,544.1455,331.0769,540.1455,327.0769,544.1455,323.0769,535.1455,327.0769" style="stroke:#181818;stroke-width:1;"/><text fill="#000000" font-family="sans-serif" font-size="13" lengthAdjust="spacing" textLength="44.5034" x="530" y="280.4838">detalla</text></g><!--link P_PRESTAMOS to P_JUEGOS--><g class="link" data-entity-1="ent0028" data-entity-2="ent0015" data-link-type="dependency" data-source-line="87" id="lnk51"><path codeLine="87" d="M1037.7201,187.0769 C1038.2325,187.0769 1038.766,187.0769 1039.3203,187.0769 C1041.5372,187.0769 1044.0854,187.0769 1046.9395,187.0769 C1058.3555,187.0769 1074.6641,187.0769 1094.2344,187.0769 C1133.375,187.0769 1185.5625,187.0769 1237.75,187.0769 C1342.125,187.0769 1446.5,187.0769 1446.5,187.0769 C1446.5,187.0769 1446.5,290.5769 1446.5,394.0769 C1446.5,445.8269 1446.5,491.5769 1446.5,530.3894" fill="none" id="P_PRESTAMOS-to-P_JUEGOS" style="stroke:#181818;stroke-width:1;stroke-dasharray:7,7;"/><polygon fill="#181818" points="1446.5,536.3894,1450.5,527.3894,1446.5,531.3894,1442.5,527.3894,1446.5,536.3894" style="stroke:#181818;stroke-width:1;"/><text fill="#000000" font-family="sans-serif" font-size="13" lengthAdjust="spacing" textLength="132.4058" x="1313.5" y="194.9938">referencia pr&#233;stamo</text></g><!--link P_PRESTAMOS to P_USUARIOS--><g class="link" data-entity-1="ent0028" data-entity-2="ent0006" data-link-type="dependency" data-source-line="88" id="lnk52"><path codeLine="88" d="M1037.2048,194.0769 C1037.5597,194.0769 1037.9239,194.0769 1038.2968,194.0769 C1039.7884,194.0769 1041.4195,194.0769 1043.16,194.0769 C1050.1219,194.0769 1058.8325,194.0769 1067.3525,194.0769 C1084.3925,194.0769 1100.67,194.0769 1100.67,194.0769 C1100.67,194.0769 1100.67,256.5469 1100.67,320.9681 C1100.67,337.0734 1100.67,353.3007 1100.67,368.7043 C1100.67,376.4061 1100.67,383.902 1100.67,391.0738 C1100.67,394.6597 1100.67,398.1645 1100.67,401.5736 C1100.67,402.4259 1100.67,397.2721 1100.67,398.1122" fill="none" id="P_PRESTAMOS-to-P_USUARIOS" style="stroke:#181818;stroke-width:1;stroke-dasharray:7,7;"/><polygon fill="#181818" points="1100.67,404.1122,1104.67,395.1122,1100.67,399.1122,1096.67,395.1122,1100.67,404.1122" style="stroke:#181818;stroke-width:1;"/><text fill="#000000" font-family="sans-serif" font-size="13" lengthAdjust="spacing" textLength="118.4854" x="981.67" y="287.2838">referencia usuario</text></g><!--link P_PRESTAMOS to P_MESAS--><g class="link" data-entity-1="ent0028" data-entity-2="ent0019" data-link-type="dependency" data-source-line="89" id="lnk53"><path codeLine="89" d="M1029,231.0273 C1029,231.2527 1029,231.4787 1029,231.7052 C1029,232.1582 1029,232.6134 1029,233.0707 C1029,233.9853 1029,234.9081 1029,235.8384 C1029,237.699 1029,239.5893 1029,241.5022 C1029,249.1538 1029,257.1678 1029,265.0931 C1029,296.7944 1029,327.0769 1029,327.0769 C1029,327.0769 945.0775,327.0769 859.1875,327.0769 C816.2425,327.0769 772.8056,327.0769 739.1213,327.0769 C722.2791,327.0769 707.875,327.0769 697.1896,327.0769 C694.5183,327.0769 692.0793,327.0769 689.8928,327.0769 C688.7996,327.0769 687.7694,327.0769 686.8049,327.0769 C686.3226,327.0769 691.8568,327.0769 691.4076,327.0769" fill="none" id="P_PRESTAMOS-to-P_MESAS" style="stroke:#181818;stroke-width:1;stroke-dasharray:7,7;"/><polygon fill="#181818" points="685.4076,327.0769,694.4076,331.0769,690.4076,327.0769,694.4076,323.0769,685.4076,327.0769" style="stroke:#181818;stroke-width:1;"/><text fill="#000000" font-family="sans-serif" font-size="13" lengthAdjust="spacing" textLength="105.7583" x="813.53" y="323.1438">referencia mesa</text></g><!--link P_VENTAS to P_JUEGOS--><g class="link" data-entity-1="ent0030" data-entity-2="ent0015" data-link-type="dependency" data-source-line="90" id="lnk54"><path codeLine="90" d="M1473.33,364.7313 C1473.33,367.5551 1473.33,370.4997 1473.33,373.5517 C1473.33,397.9678 1473.33,429.2562 1473.33,460.5306 C1473.33,476.1678 1473.33,491.8015 1473.33,506.5708 C1473.33,513.9555 1473.33,521.1241 1473.33,527.969 C1473.33,529.6803 1473.33,531.3713 1473.33,533.0404 C1473.33,533.8749 1473.33,534.704 1473.33,535.5273 C1473.33,535.939 1473.33,536.3493 1473.33,536.7581 C1473.33,536.9625 1473.33,531.1666 1473.33,531.3703" fill="none" id="P_VENTAS-to-P_JUEGOS" style="stroke:#181818;stroke-width:1;stroke-dasharray:7,7;"/><polygon fill="#181818" points="1473.33,537.3703,1477.33,528.3703,1473.33,532.3703,1469.33,528.3703,1473.33,537.3703" style="stroke:#181818;stroke-width:1;"/><text fill="#000000" font-family="sans-serif" font-size="13" lengthAdjust="spacing" textLength="107.3516" x="1365.33" y="456.4238">referencia venta</text></g><!--link P_VENTAS to P_USUARIOS--><g class="link" data-entity-1="ent0030" data-entity-2="ent0006" data-link-type="dependency" data-source-line="91" id="lnk55"><path codeLine="91" d="M1455,364.9946 C1455,365.2907 1455,365.588 1455,365.8865 C1455,367.0802 1455,368.2921 1455,369.5207 C1455,374.4353 1455,379.6179 1455,384.9792 C1455,395.7019 1455,407.1394 1455,418.5769 C1455,464.3269 1455,510.0769 1455,510.0769 C1455,510.0769 1366.5825,510.0769 1278.165,510.0769 C1233.9563,510.0769 1189.7475,510.0769 1156.5909,510.0769 C1140.0127,510.0769 1126.1974,510.0769 1116.5268,510.0769 C1114.1091,510.0769 1111.9505,510.0769 1110.0725,510.0769 C1109.8377,510.0769 1115.6073,510.0769 1115.3814,510.0769" fill="none" id="P_VENTAS-to-P_USUARIOS" style="stroke:#181818;stroke-width:1;stroke-dasharray:7,7;"/><polygon fill="#181818" points="1109.3814,510.0769,1118.3814,514.0769,1114.3814,510.0769,1118.3814,506.0769,1109.3814,510.0769" style="stroke:#181818;stroke-width:1;"/><text fill="#000000" font-family="sans-serif" font-size="13" lengthAdjust="spacing" textLength="141.2354" x="1211.69" y="506.1438">referencia comprador</text></g><!--link P_SUGERENCIAS to P_USUARIOS--><g class="link" data-entity-1="ent0033" data-entity-2="ent0006" data-link-type="dependency" data-source-line="92" id="lnk56"><path codeLine="92" d="M849,230.9301 C849,231.0528 849,231.1755 849,231.298 C849,231.5431 849,231.788 849,232.0325 C849,232.5215 849,233.0092 849,233.4951 C849,234.467 849,235.4319 849,236.3864 C849,238.2954 849,240.1629 849,241.9617 C849,245.5594 849,248.8825 849,251.7144 C849,257.3781 849,261.0769 849,261.0769 C849,261.0769 1071.25,261.0769 1071.25,261.0769 C1071.25,261.0769 1071.25,311.0769 1071.25,361.0769 C1071.25,373.5769 1071.25,386.0769 1071.25,397.7956 C1071.25,399.2605 1071.25,400.7131 1071.25,402.152 C1071.25,402.5117 1071.25,396.8706 1071.25,397.2286" fill="none" id="P_SUGERENCIAS-to-P_USUARIOS" style="stroke:#181818;stroke-width:1;stroke-dasharray:7,7;"/><polygon fill="#181818" points="1071.25,403.2286,1075.25,394.2286,1071.25,398.2286,1067.25,394.2286,1071.25,403.2286" style="stroke:#181818;stroke-width:1;"/><text fill="#000000" font-family="sans-serif" font-size="13" lengthAdjust="spacing" textLength="135.0527" x="905.54" y="257.1438">referencia empleado</text></g><!--link P_TORNEOS to P_JUEGOS--><g class="link" data-entity-1="ent0035" data-entity-2="ent0015" data-link-type="dependency" data-source-line="93" id="lnk57"><path codeLine="93" d="M1789,498.1885 C1789,498.6755 1789,499.1618 1789,499.6473 C1789,500.6183 1789,501.5862 1789,502.551 C1789,506.4098 1789,510.2166 1789,513.9565 C1789,528.9159 1789,542.8047 1789,554.6744 C1789,578.4137 1789,594.0769 1789,594.0769 C1789,594.0769 1713.66,594.0769 1636.5538,594.0769 C1598.0006,594.0769 1559.0059,594.0769 1528.7664,594.0769 C1513.6466,594.0769 1500.7157,594.0769 1491.1231,594.0769 C1488.7249,594.0769 1486.5354,594.0769 1484.5725,594.0769 C1483.5911,594.0769 1482.6663,594.0769 1481.8004,594.0769 C1481.5839,594.0769 1487.3711,594.0769 1487.1621,594.0769" fill="none" id="P_TORNEOS-to-P_JUEGOS" style="stroke:#181818;stroke-width:1;stroke-dasharray:7,7;"/><polygon fill="#181818" points="1481.1621,594.0769,1490.1621,598.0769,1486.1621,594.0769,1490.1621,590.0769,1481.1621,594.0769" style="stroke:#181818;stroke-width:1;"/><text fill="#000000" font-family="sans-serif" font-size="13" lengthAdjust="spacing" textLength="106.4121" x="1657.39" y="590.1438">referencia juego</text></g><!--link P_TORNEOS to P_USUARIOS--><g class="link" data-entity-1="ent0035" data-entity-2="ent0006" data-link-type="dependency" data-source-line="94" id="lnk58"><path codeLine="94" d="M1789,270.6092 C1789,270.4398 1789,270.2705 1789,270.1014 C1789,269.7631 1789,269.4257 1789,269.0891 C1789,266.3966 1789,263.7588 1789,261.215 C1789,256.1276 1789,251.4164 1789,247.3959 C1789,239.355 1789,234.0769 1789,234.0769 C1789,234.0769 1101.33,234.0769 1101.33,234.0769 C1101.33,234.0769 1101.33,287.1619 1101.33,341.9056 C1101.33,355.5916 1101.33,369.3812 1101.33,382.4709 C1101.33,389.0158 1101.33,395.3857 1101.33,401.4802 C1101.33,402.242 1101.33,396.9995 1101.33,397.7525" fill="none" id="P_TORNEOS-to-P_USUARIOS" style="stroke:#181818;stroke-width:1;stroke-dasharray:7,7;"/><polygon fill="#181818" points="1101.33,403.7525,1105.33,394.7525,1101.33,398.7525,1097.33,394.7525,1101.33,403.7525" style="stroke:#181818;stroke-width:1;"/><text fill="#000000" font-family="sans-serif" font-size="13" lengthAdjust="spacing" textLength="124.9092" x="1253.55" y="230.1438">referencia inscritos</text></g><?plantuml-src bLLBRjim4Dth54Iow2f1Ww8V16W1sQOD1tMiMdQs1IsD7JQKg5AKWQ0eq4Fq4hb2jxv9Jz8HzJ4fEIcidSWtRsRUVAYv5a06agcOJ5W2PCWs-oVozzTlugll1TSGwK8n4WDXGakIyXq8pyiVU9ennHAIiUY1RI7KZyYZ4CtIhG0B87WA-Z438fM-bzuzHof8Clr84aZMeFBgAE8gGZll5VbumeVmmF-oeaiQdchfrP6JiqJ68EGPOJa9lixc8_fvJixfk_7LU41-U0I_IB0yBwK1wtS2kPOgm0nuhY6DEBCkf-b6gWIydvQV8Y-OuZAlFQt2bR-OpaDoFlOf7VcrBxREjMAHhebMbP4TXk2GQZW6faacWCKsUWOvACTSHbWHvyYF4vxoaYcMoZfV5YgrSQ4KFEAwY8SiMNDPNTiPVYjWs-PtiwAJCZlgZz-CwF7iRae33D6MhZqB52hC4ddixWubO8xl14yRrpCQ-gMk0_JzsgcXyMMRPKh6HQJRg8F5VBGQBatWL-Etz9d0Wzfi1cbXqGzWpMCxcO1XRmXGlECLOXuVVDBHT6GyOX-CgHDmO93MmGWq4mBgSpULIgz3AZHS-hEwmuRqlKlSg6jJx4fP6_ixUhiqCWxfWBgZOEGtnUX7rYzDNcn1cGbfgCFLX2xexN1g-A_ec7vm-CFM8X1Ckp7YqANG9hcSBsvfJxjEjPR6nEviS-0dsFGoxryCPPA1vfhlZEkJTz8218kuJ24tcnG4gNOCmGFyaRXPI_5nsaY4QYacJjvUxQQwkFXaBnFyhiaMsT4zwwBgaIGkYl3KrBtSJLsBQfAw5btKOMWStWJI_PyUjcxsYb71rYoUFcFJko-XwWxz3vVTRC-ZcaRgSBdLB8i5-EPX_JJ-uhiLot9tIiygmUMbg_KrsR2TL5mRUPlyAvIbR-bqKtTz3sSfV8rkoq4pe5QcZbERZ6Hg_rJDUj-YZTgng9-g8_WsO0TVBb-lhKTNW0xOD5iNxJQmXOvm5gk7oQtaI-53ymuUojgBoJ4m3rSFRSNae7cQHwQS_m00?></g></svg>